<svg xmlns="http://www.w3.org/2000/svg" width="60" height="60" viewBox="0 0 60 60"><defs><linearGradient id="a" x1="0%" y1="0%" y2="100%"><stop offset="0%" stop-color="#FBEF2B"/><stop offset="33.052%" stop-color="#9FC710"/><stop offset="59.709%" stop-color="#3998C1"/><stop offset="100%" stop-color="#984186"/></linearGradient></defs><path fill="url(#a)" d="M30 0a12.03 12.03 0 0 0-9.766 5.027 1.008 1.008 0 0 1-.988.41 11.991 11.991 0 0 0-1.98-.164 11.913 11.913 0 0 0-8.48 3.512 12.04 12.04 0 0 0-3.348 10.461c.062.383-.094.762-.407.988A12.024 12.024 0 0 0 0 30a12.03 12.03 0 0 0 5.027 9.766c.317.226.473.605.41.988a12.033 12.033 0 0 0 3.348 10.46 11.913 11.913 0 0 0 8.48 3.513c.665 0 1.329-.055 1.981-.164a1.01 1.01 0 0 1 .988.406A12.024 12.024 0 0 0 30 60a12.03 12.03 0 0 0 9.766-5.027c.226-.317.605-.473.988-.41.652.109 1.316.164 1.98.164 3.203 0 6.215-1.247 8.48-3.512a12.04 12.04 0 0 0 3.349-10.461 1.013 1.013 0 0 1 .406-.988A12.024 12.024 0 0 0 60 30a12.03 12.03 0 0 0-5.027-9.766 1.008 1.008 0 0 1-.41-.988 12.033 12.033 0 0 0-3.348-10.46 11.913 11.913 0 0 0-8.48-3.513c-.665 0-1.329.055-1.981.165a1.013 1.013 0 0 1-.988-.407A12.024 12.024 0 0 0 30 0zm0 2c3.219 0 6.262 1.566 8.14 4.191a3 3 0 0 0 2.938 1.22c.547-.09 1.102-.138 1.652-.138 2.672 0 5.18 1.04 7.067 2.93a10.028 10.028 0 0 1 2.793 8.719 2.987 2.987 0 0 0 1.219 2.937A10.035 10.035 0 0 1 58 30c0 3.219-1.566 6.262-4.191 8.14a2.987 2.987 0 0 0-1.22 2.938 10.028 10.028 0 0 1-2.792 8.719 9.91 9.91 0 0 1-7.063 2.93c-.554 0-1.109-.047-1.652-.137a3.004 3.004 0 0 0-2.941 1.219A10.035 10.035 0 0 1 30 58a10.035 10.035 0 0 1-8.14-4.191 3.008 3.008 0 0 0-2.442-1.262c-.164 0-.332.016-.496.047a10.21 10.21 0 0 1-1.652.133 9.924 9.924 0 0 1-7.067-2.926 10.04 10.04 0 0 1-2.793-8.723 2.987 2.987 0 0 0-1.219-2.937A10.035 10.035 0 0 1 2 30c0-3.219 1.566-6.262 4.191-8.14a2.987 2.987 0 0 0 1.22-2.938 10.028 10.028 0 0 1 2.792-8.719 9.91 9.91 0 0 1 7.063-2.93c.554 0 1.109.047 1.652.137a3 3 0 0 0 2.941-1.219A10.035 10.035 0 0 1 30 2zm0 7a1 1 0 0 0-1 1v2a1 1 0 1 0 2 0v-2a1 1 0 0 0-1-1zm-5.04.688a.998.998 0 0 0-1.102 1.25l.517 1.933a1 1 0 0 0 1.934-.516l-.52-1.933a.998.998 0 0 0-.828-.735zm10.083 0a1.003 1.003 0 0 0-.832.734l-.52 1.933a1.002 1.002 0 0 0 .97 1.258 1 1 0 0 0 .964-.742l.516-1.934a.998.998 0 0 0-1.098-1.25zm-15.168 2a.998.998 0 0 0-.738 1.492l1 1.73a.999.999 0 0 0 1.363.367.997.997 0 0 0 .363-1.367l-1-1.73a.999.999 0 0 0-.988-.492zm20.25 0a.992.992 0 0 0-.988.492l-1 1.73a.997.997 0 1 0 1.726 1l1-1.73a1.002 1.002 0 0 0-.363-1.367 1.063 1.063 0 0 0-.375-.126zm-24.266 3.171a.99.99 0 0 0-.707.29.993.993 0 0 0 0 1.414l1.41 1.417a1.013 1.013 0 0 0 1.418 0 1.004 1.004 0 0 0 0-1.418l-1.418-1.414a.987.987 0 0 0-.703-.289zm28.282 0a.991.991 0 0 0-.703.293l-1.418 1.41a1.004 1.004 0 0 0 0 1.418c.195.196.453.29.71.29a.996.996 0 0 0 .708-.29l1.41-1.414a.993.993 0 0 0 0-1.414.962.962 0 0 0-.707-.293zM12.8 19.004a1.002 1.002 0 0 0-.621 1.86l1.73 1a.996.996 0 0 0 1.367-.363.997.997 0 0 0-.367-1.364l-1.73-1a1.047 1.047 0 0 0-.38-.133zm34.394 0c-.129.02-.258.062-.375.133l-1.73 1a.994.994 0 0 0-.367 1.363 1.001 1.001 0 0 0 1.367.363l1.73-1a.997.997 0 0 0 .367-1.363 1.01 1.01 0 0 0-.992-.496zM42 22a1 1 0 0 0-.707.293L27 36.586l-7.293-7.293a1 1 0 1 0-1.414 1.414l8 8c.195.195.45.293.707.293a.993.993 0 0 0 .707-.293l15-15A1 1 0 0 0 42 22zm7.457 1.832a.907.907 0 0 0-.395.027l-1.933.516a1 1 0 0 0-.707 1.223 1 1 0 0 0 1.223.71l1.933-.519c.531-.144.852-.691.707-1.227a.999.999 0 0 0-.828-.73zm-38.91 0a1 1 0 0 0-.125 1.957l1.933.52a1 1 0 0 0 1.223-.707 1.002 1.002 0 0 0-.703-1.227l-1.934-.516a.97.97 0 0 0-.394-.027zM10 29a1 1 0 1 0 0 2h2a1 1 0 1 0 0-2h-2zm38 0a1 1 0 1 0 0 2h2a1 1 0 1 0 0-2h-2zm-35.25 4.668a.972.972 0 0 0-.395.023l-1.933.52a1.002 1.002 0 0 0-.707 1.227.997.997 0 0 0 1.223.703l1.933-.516a1 1 0 0 0-.121-1.957zm34.5 0a1.002 1.002 0 0 0-.125 1.957l1.934.516a.997.997 0 0 0 1.223-.703 1 1 0 0 0-.704-1.227l-1.933-.52a.968.968 0 0 0-.395-.023zm-32.965 4.34a.954.954 0 0 0-.375.129l-1.73 1a.997.997 0 1 0 1 1.726l1.73-1a.994.994 0 0 0 .367-1.363 1.004 1.004 0 0 0-.992-.492zm31.43 0a.997.997 0 0 0-.625 1.855l1.73 1a.961.961 0 0 0 .496.137.997.997 0 0 0 .504-1.863l-1.73-1a.976.976 0 0 0-.375-.13zM17.27 41.73a1.003 1.003 0 0 0-.707.29l-1.41 1.417a.988.988 0 0 0 0 1.41c.19.196.449.294.706.294a.98.98 0 0 0 .704-.29l1.417-1.413a1.004 1.004 0 0 0 0-1.418 1.002 1.002 0 0 0-.71-.29zm25.46 0a1.02 1.02 0 0 0-.71.29 1.002 1.002 0 0 0 0 1.417l1.417 1.41c.192.196.45.294.704.294a.987.987 0 0 0 .707-.293.993.993 0 0 0 0-1.414l-1.41-1.414a1.02 1.02 0 0 0-.708-.29zm-21.605 2.864a1.002 1.002 0 0 0-.988.496l-1 1.73a1.002 1.002 0 0 0 .363 1.367.999.999 0 0 0 1.363-.367l1-1.73a.997.997 0 0 0-.363-1.367 1.09 1.09 0 0 0-.375-.13zm17.75 0a1.02 1.02 0 0 0-.375.129.997.997 0 0 0-.363 1.367l1 1.73a.995.995 0 0 0 1.363.367c.48-.277.64-.89.363-1.367l-1-1.73a1.002 1.002 0 0 0-.988-.496zm-13.672 1.8a1.003 1.003 0 0 0-.828.735l-.516 1.934a.998.998 0 1 0 1.93.515l.52-1.933a1.002 1.002 0 0 0-.711-1.223 1.044 1.044 0 0 0-.395-.027zm9.594 0a1.044 1.044 0 0 0-.395.028 1.002 1.002 0 0 0-.71 1.223l.519 1.933a1 1 0 0 0 1.227.707.998.998 0 0 0 .703-1.222l-.516-1.934a.998.998 0 0 0-.828-.734zM30 47a1 1 0 0 0-1 1v2a1 1 0 1 0 2 0v-2a1 1 0 0 0-1-1z"/></svg>