<svg xmlns="http://www.w3.org/2000/svg" width="24" height="20" viewBox="0 0 24 20"><path fill="#FFF" fill-opacity=".4" fill-rule="evenodd" d="M11.25 11.042c.536.416.937.746 1.205.99.268.242.536.624.804 1.145.268.52.402 1.076.402 1.667 0 1.389-.661 2.595-1.982 3.62C10.357 19.488 8.536 20 6.214 20c-2 0-3.535-.4-4.607-1.198C.536 18.003 0 17.066 0 15.99c0-1.39.75-2.518 2.25-3.386 1.107-.66 2.625-1.059 4.554-1.198-.286-.486-.429-.937-.429-1.354 0-.243.018-.417.054-.52h-.215c-1.5 0-2.696-.452-3.589-1.355-.857-.833-1.286-1.823-1.286-2.969 0-1.458.625-2.69 1.875-3.698C4.536.503 6.214 0 8.25 0h7.179l-3.215 1.719h-.696c.821.937 1.232 1.944 1.232 3.02 0 .66-.143 1.26-.429 1.797-.285.539-.562.93-.83 1.172a11.75 11.75 0 0 1-1.152.886v.052c-.393.382-.589.677-.589.885 0 .243.179.504.536.781l.964.73zM4.554 3.958c0 .903.25 1.789.75 2.657.571.937 1.303 1.406 2.196 1.406.607 0 1.107-.191 1.5-.573.357-.347.536-.868.536-1.563 0-.902-.268-1.822-.804-2.76-.607-.972-1.321-1.458-2.143-1.458-.678 0-1.196.225-1.553.677-.322.382-.482.92-.482 1.614zm6.482 11.875c0-.486-.179-.92-.536-1.302-.357-.382-1.071-.92-2.143-1.614-.036 0-.098-.009-.187-.026a1.276 1.276 0 0 0-.241-.026c-.893 0-1.786.138-2.679.416-1.357.486-2.036 1.216-2.036 2.188 0 .798.393 1.44 1.179 1.927.786.486 1.821.729 3.107.729 1.107 0 1.973-.208 2.598-.625.625-.417.938-.972.938-1.667zm8.785-11.77H24v1.77h-4.179v4.22H18v-4.22h-4.286v-1.77H18V0h1.821v4.063z"/></svg>