<svg xmlns="http://www.w3.org/2000/svg" width="24" height="20" viewBox="0 0 24 20"><path fill="#FFF" fill-opacity=".4" fill-rule="evenodd" d="M24 2.3c-.61.933-1.424 1.767-2.44 2.5v.6c0 3.5-1.28 6.675-3.84 9.525-2.559 2.85-5.957 4.275-10.195 4.275-2.711 0-5.22-.733-7.525-2.2.542.067.932.1 1.17.1 2.27 0 4.305-.7 6.101-2.1-1.05-.033-2-.358-2.847-.975-.848-.617-1.424-1.408-1.73-2.375.408.067.713.1.916.1.34 0 .78-.067 1.322-.2-1.118-.233-2.06-.792-2.822-1.675A4.563 4.563 0 0 1 .966 6.8v-.05c.746.4 1.492.6 2.237.6-1.457-.933-2.186-2.283-2.186-4.05 0-.833.22-1.633.661-2.4 2.61 3.167 5.983 4.85 10.119 5.05-.068-.233-.102-.6-.102-1.1 0-1.367.474-2.517 1.424-3.45.949-.933 2.118-1.4 3.508-1.4 1.39 0 2.576.517 3.56 1.55 1.016-.167 2.067-.567 3.152-1.2-.339 1.167-1.068 2.067-2.186 2.7 1.05-.1 2-.35 2.847-.75z"/></svg>