<svg xmlns="http://www.w3.org/2000/svg" width="24" height="18" viewBox="0 0 24 18"><path fill="#979696" fill-rule="evenodd" d="M23.86 3.984a90.41 90.41 0 0 1 0 10.031c0 1.063-.337 1.962-1.008 2.696-.672.734-1.493 1.102-2.461 1.102-2.407.125-5.203.187-8.391.187-3.188 0-5.984-.062-8.39-.188-.97 0-1.79-.367-2.462-1.101-.671-.734-1.007-1.633-1.007-2.695A90.41 90.41 0 0 1 0 9c0-1.094.062-2.766.188-5.016 0-1.062.328-1.96.984-2.695C1.828.555 2.64.188 3.609.188 5.891.061 8.547 0 11.58 0h.843c3.031 0 5.687.062 7.969.188.968 0 1.789.367 2.46 1.101.672.734 1.008 1.633 1.008 2.695zm-14.157 9.61L16.5 9 9.703 4.36v9.234z"/></svg>