<svg xmlns="http://www.w3.org/2000/svg" width="24" height="24" viewBox="0 0 24 24"><path fill="#FFF" fill-opacity=".4" fill-rule="evenodd" d="M22.063 0c.541 0 1 .177 1.375.531.375.354.562.802.562 1.344v20.063c0 .541-.187 1.02-.563 1.437-.375.417-.833.625-1.375.625h-20c-.541 0-1.02-.208-1.437-.625C.208 22.958 0 22.479 0 21.937V1.875C0 1.333.198.885.594.531.99.177 1.479 0 2.063 0h20zM7.438 20V9.312H4V20h3.438zM5.813 7.687c.541 0 .99-.177 1.343-.53a1.75 1.75 0 0 0 .532-1.282c0-.542-.167-.99-.5-1.344C6.854 4.177 6.417 4 5.875 4c-.542 0-.99.177-1.344.531C4.177 4.885 4 5.333 4 5.875c0 .5.167.927.5 1.281.333.354.77.532 1.313.532zM20 20v-6.25c0-1.542-.365-2.708-1.094-3.5-.729-.792-1.677-1.188-2.843-1.188-1.25 0-2.292.584-3.125 1.75v-1.5H9.5V20h3.438v-6.063c0-.416.041-.708.124-.874.334-.834.917-1.25 1.75-1.25 1.167 0 1.75.77 1.75 2.312V20H20z"/></svg>