<svg xmlns="http://www.w3.org/2000/svg" width="24" height="26" viewBox="0 0 24 26">
    <path fill="#FFF" fill-rule="nonzero" d="M12 0c-1.522 0-2.77 1.255-2.77 2.786 0 1.204.78 2.227 1.847 2.611V7.43h-2.77c-.576 0-1.117.188-1.564.493l-1.32-.668c.065-.239.115-.493.115-.754 0-1.53-1.247-2.786-2.769-2.786C1.248 3.714 0 4.97 0 6.5c0 1.53 1.248 2.786 2.77 2.786.576 0 1.117-.189 1.564-.494l1.32.668c-.065.24-.116.493-.116.754v5.572c0 .275.058.537.13.783-.216.116-.23.13-.461.254-.303.152-.57.283-.837.414a2.728 2.728 0 0 0-1.6-.523C1.247 16.714 0 17.97 0 19.5c0 1.53 1.248 2.786 2.77 2.786 1.52 0 2.768-1.255 2.768-2.786 0-.254-.043-.493-.108-.725.21-.102.397-.196.613-.312.368-.189.419-.218.721-.378.44.305.974.486 1.544.486h2.769v2.032a2.787 2.787 0 0 0-1.846 2.611C9.23 24.745 10.478 26 12 26s2.77-1.255 2.77-2.786a2.787 2.787 0 0 0-1.847-2.611V18.57h2.77c.576 0 1.117-.188 1.564-.493l1.32.668c-.065.239-.115.493-.115.754 0 1.53 1.247 2.786 2.769 2.786C22.752 22.286 24 21.03 24 19.5c0-1.53-1.248-2.786-2.77-2.786-.576 0-1.117.189-1.564.494l-1.32-.668c.065-.24.116-.493.116-.754v-5.572c0-.26-.05-.515-.116-.754l1.32-.668c.447.305.988.494 1.565.494C22.752 9.286 24 8.03 24 6.5c0-1.53-1.248-2.786-2.77-2.786-1.52 0-2.768 1.255-2.768 2.786 0 .261.05.515.115.754l-1.32.668a2.784 2.784 0 0 0-1.565-.493h-2.769V5.397a2.787 2.787 0 0 0 1.846-2.611C14.77 1.255 13.522 0 12 0zm0 1.857c.52 0 .923.406.923.929a.914.914 0 0 1-.923.928.914.914 0 0 1-.923-.928c0-.523.404-.929.923-.929zM2.77 5.571c.518 0 .922.407.922.929a.914.914 0 0 1-.923.929.914.914 0 0 1-.923-.929c0-.522.404-.929.923-.929zm18.46 0c.52 0 .924.407.924.929a.914.914 0 0 1-.923.929.914.914 0 0 1-.923-.929c0-.522.404-.929.923-.929zM8.309 9.286h7.384c.52 0 .923.406.923.928v5.572a.914.914 0 0 1-.923.928H8.308a.914.914 0 0 1-.923-.928v-5.572c0-.522.403-.928.923-.928zm1.846 1.857a.922.922 0 0 0-.808.457.921.921 0 0 0 0 .943.922.922 0 0 0 .808.457h3.692a.922.922 0 0 0 .808-.457.921.921 0 0 0 0-.943.922.922 0 0 0-.808-.457h-3.692zM2.769 18.57c.52 0 .923.407.923.929a.914.914 0 0 1-.923.929.914.914 0 0 1-.923-.929c0-.522.404-.929.923-.929zm18.462 0c.519 0 .923.407.923.929a.914.914 0 0 1-.923.929.914.914 0 0 1-.923-.929c0-.522.404-.929.923-.929zM12 22.286c.52 0 .923.406.923.928a.914.914 0 0 1-.923.929.914.914 0 0 1-.923-.929c0-.522.404-.928.923-.928z"/>
</svg>
