<svg xmlns="http://www.w3.org/2000/svg" width="24" height="22" viewBox="0 0 24 22">
    <path fill="#FFF" fill-opacity=".5" fill-rule="nonzero" d="M6 0C4.59 0 3.429 1.147 3.429 2.538 3.429 3.93 4.59 5.077 6 5.077c1.41 0 2.571-1.147 2.571-2.539C8.571 1.147 7.41 0 6 0zm0 5.077H4.286c-1.41 0-2.572 1.146-2.572 2.538v2.539H0v1.692h15.429v-1.692h-2.09l3.399-2.796a2.59 2.59 0 0 1 1.647-.589h3.044a.84.84 0 0 1 .857.846v3.88l-1.715 1.693V22h1.715v-8.111L24 12.197V7.615c0-1.392-1.161-2.538-2.571-2.538h-3.044a4.317 4.317 0 0 0-2.745.982l-4.19 3.444.55.65h-1.714V7.616c0-1.392-1.162-2.538-2.572-2.538H6zm13.714 0c1.41 0 2.572-1.147 2.572-2.539C22.286 1.147 21.124 0 19.714 0c-1.41 0-2.571 1.147-2.571 2.538 0 1.392 1.161 2.539 2.571 2.539zM6 1.692a.84.84 0 0 1 .857.846.84.84 0 0 1-.857.847.84.84 0 0 1-.857-.847A.84.84 0 0 1 6 1.692zm13.714 0a.84.84 0 0 1 .857.846.84.84 0 0 1-.857.847.84.84 0 0 1-.857-.847.84.84 0 0 1 .857-.846zM4.286 6.77h3.428a.84.84 0 0 1 .857.846v2.539H3.43V7.615a.84.84 0 0 1 .857-.846zm3.857 6.77c-.7 0-1.286.577-1.286 1.269v.423h-1.73c-.927 0-1.698.759-1.698 1.676v3.417c0 .915.769 1.676 1.697 1.676H12c.939 0 1.714-.765 1.714-1.692v-3.385c0-.925-.777-1.692-1.714-1.692h-1.714v-.423c0-.692-.586-1.27-1.286-1.27h-.857zm9 0V22h1.714v-8.462h-1.714zm-12 3.384H12v3.385H5.143v-3.385z"/>
</svg>
