<svg xmlns="http://www.w3.org/2000/svg" width="24" height="24" viewBox="0 0 24 24">
    <path fill="#FFF" fill-opacity=".5" fill-rule="nonzero" d="M16.364 0v5.966L13.09 7.909V4.602l-1.636 1.023-3.819 2.284V4.602L6 5.625.545 8.898 0 9.205V24h24V0h-7.636zm2.181 2.182h3.273v19.636H2.182v-11.42l3.273-1.943v3.306L7.09 10.74l3.818-2.284v3.306l1.636-1.022L18 7.466l.545-.307V2.182zM4.364 13.09v2.182h2.181V13.09H4.364zm4.363 0v2.182h2.182V13.09H8.727zm4.364 0v2.182h2.182V13.09H13.09zm4.364 0v2.182h2.181V13.09h-2.181zM4.364 17.455v2.181h2.181v-2.181H4.364zm4.363 0v2.181h2.182v-2.181H8.727zm4.364 0v2.181h2.182v-2.181H13.09zm4.364 0v2.181h2.181v-2.181h-2.181z"/>
</svg>
