<svg xmlns="http://www.w3.org/2000/svg" width="24" height="25" viewBox="0 0 24 25">
    <path fill="#FFF" fill-opacity=".5" fill-rule="nonzero" d="M10 0C7.965 0 5.473.43 3.445 2.086 1.418 3.742 0 6.606 0 11c0 2.84 1.16 4.73 2.188 6.172C3.21 18.617 4 19.582 4 21v4h2v-4c0-2.164-1.21-3.617-2.184-4.984C2.844 14.645 2 13.324 2 11c0-3.98 1.188-6.117 2.71-7.367C6.239 2.383 8.25 2 10 2c3.84 0 6.02 1.035 7.297 2.363C18.57 5.691 19 7.414 19 9v.3l2.953 4.427c.113.168.055.335-.137.394L19 15.016V18c0 .652-.363 1.441-.957 2.035-.594.598-1.379.965-2.043.965h-2v4h2v-2c1.34 0 2.555-.64 3.457-1.55C20.363 20.54 21 19.323 21 18v-1.52l1.422-.453c1.41-.449 2.02-2.18 1.2-3.41l-2.684-4.012c-.067-1.867-.594-3.953-2.2-5.628C17.023 1.19 14.207 0 10 0zm1 7l-2 8h2l2-8h-2zm-3.957.918L3.961 11l3.082 3.082 1.414-1.414L6.789 11l1.668-1.668-1.414-1.414zm7.914 0l-1.414 1.414L15.211 11l-1.668 1.668 1.414 1.414L18.039 11l-3.082-3.082z"/>
</svg>
