<svg xmlns="http://www.w3.org/2000/svg" width="24" height="24" viewBox="0 0 24 24">
    <path fill="#FFF" fill-opacity=".5" fill-rule="nonzero" d="M10.8 0v2.4h2.4V0h-2.4zM12 2.4c-6.6 0-12 5.4-12 12h2.4c0-1.322 1.078-2.4 2.4-2.4 1.322 0 2.4 1.078 2.4 2.4h2.4c0-1.322 1.078-2.4 2.4-2.4 1.322 0 2.4 1.078 2.4 2.4h2.4c0-1.322 1.078-2.4 2.4-2.4 1.322 0 2.4 1.078 2.4 2.4H24c0-6.6-5.4-12-12-12zm0 2.625c3.6 0 6.61 1.927 8.288 4.688-.361-.122-.727-.113-1.088-.113-1.44 0-2.76.61-3.6 1.688-.84-.961-2.16-1.688-3.6-1.688s-2.76.61-3.6 1.688C7.56 10.208 6.24 9.6 4.8 9.6c-.36 0-.727-.01-1.087.113C5.39 6.952 8.4 5.025 12 5.025zm0 8.175c-.722 0-1.2.478-1.2 1.2v4.8c0 1.44-.722 2.4-1.2 2.4s-1.2-.96-1.2-2.4H6C6 21.84 7.56 24 9.6 24s3.6-2.16 3.6-4.8v-4.8c0-.722-.478-1.2-1.2-1.2z"/>
</svg>
