<svg xmlns="http://www.w3.org/2000/svg" width="22" height="24" viewBox="0 0 22 24">
    <path fill="#FFF" fill-opacity=".5" fill-rule="nonzero" d="M13.656.002a3.292 3.292 0 0 0-1.312.22c-.965.37-1.278.78-2.344.78v2c1.621 0 2.574-.718 3.063-.906.242-.094.351-.129.687-.062.336.066.902.293 1.719.812L16.53 1.16C15.594.56 14.855.206 14.156.065a3.3 3.3 0 0 0-.5-.063zm-2.656 4c-2.406 0-4.438 1.727-4.906 4H5v2h1v2H0v12h22v-12h-6v-2h1v-2h-1.094c-.469-2.273-2.5-4-4.906-4zm0 2c1.32 0 2.438.829 2.844 2H8.156a2.992 2.992 0 0 1 2.844-2zm-3 4h6v2h-2v-1h-2v1H8v-2zm-6 4h18v8h-2v-2h-2v2h-2v-2h-2v2h-2v-2H8v2H6v-2H4v2H2v-8zm2 2v2h2v-2H4zm4 0v2h2v-2H8zm4 0v2h2v-2h-2zm4 0v2h2v-2h-2z"/>
</svg>
