<svg xmlns="http://www.w3.org/2000/svg" width="32" height="46" viewBox="0 0 32 46">
    <path fill="#4EA29D" fill-rule="evenodd" d="M16.672 44.844l14.39-14.39c.22-.25.329-.54.329-.868 0-.328-.11-.602-.328-.82a1.19 1.19 0 0 0-.868-.375 1.19 1.19 0 0 0-.867.375L17 41.094V2c0-.344-.117-.633-.352-.867a1.178 1.178 0 0 0-.867-.352c-.312 0-.586.117-.82.352a1.178 1.178 0 0 0-.352.867v39.094L2.234 28.766a1.045 1.045 0 0 0-.82-.375 1.19 1.19 0 0 0-.867.375.71.71 0 0 0-.258.375c-.047.156-.07.312-.07.468 0 .157.023.305.07.446.047.14.133.273.258.398l14.39 14.39c.25.25.54.376.868.376.328 0 .617-.125.867-.375z"/>
</svg>
