<svg xmlns="http://www.w3.org/2000/svg" width="80" height="58" viewBox="0 0 80 58">
    <defs>
        <linearGradient id="a" x1="0%" y1="0%" y2="100%">
            <stop offset="0%" stop-color="#FBEF2B"/>
            <stop offset="33.052%" stop-color="#9FC710"/>
            <stop offset="59.709%" stop-color="#3998C1"/>
            <stop offset="100%" stop-color="#984186"/>
        </linearGradient>
    </defs>
    <path fill="url(#a)" fill-rule="nonzero" d="M40 0c-7.918 0-14.758 5.469-16.543 13.11a11.958 11.958 0 0 0-10.07 8.906C5.949 22.336 0 28.484 0 36c0 7.719 6.281 14 14 14h18v-2H14C7.383 48 2 42.617 2 36c0-6.613 5.379-12 12.02-12h.007l.993.023.003-.023c.543-.016.977-.457.977-1a.995.995 0 0 0-.559-.895 9.961 9.961 0 0 1 8.907-7.07l.578-.035H25a1.002 1.002 0 0 0 .52-1.855C27.246 6.629 33.164 2 40 2c6.2 0 11.836 3.906 14.027 9.723l.004.023A1.002 1.002 0 0 0 55 13c.473 0 .883-.336.98-.797A11.682 11.682 0 0 1 58 12c6.617 0 12 5.383 12 12 0 .996-.137 2.023-.406 3.059l-.266.988 1 .234A9.96 9.96 0 0 1 78 38c0 5.516-4.484 10-10 10H48v2h20c6.617 0 12-5.383 12-12 0-5.238-3.348-9.793-8.254-11.39.168-.88.254-1.755.254-2.61 0-7.719-6.281-14-14-14-.793 0-1.605.074-2.426.223C52.894 4.074 46.738 0 40 0zM29 13c-.55 0-1 .45-1 1s.45 1 1 1 1-.45 1-1-.45-1-1-1zm4 2c-.55 0-1 .45-1 1s.45 1 1 1 1-.45 1-1-.45-1-1-1zm23 0c-.55 0-1 .45-1 1s.45 1 1 1 1-.45 1-1-.45-1-1-1zm-20 3c-.55 0-1 .45-1 1s.45 1 1 1 1-.45 1-1-.45-1-1-1zm20 1c-.55 0-1 .45-1 1s.45 1 1 1 1-.45 1-1-.45-1-1-1zm-37 3c-.55 0-1 .45-1 1s.45 1 1 1 1-.45 1-1-.45-1-1-1zm4 2c-.55 0-1 .45-1 1s.45 1 1 1 1-.45 1-1-.45-1-1-1zm3 3c-.55 0-1 .45-1 1s.45 1 1 1 1-.45 1-1-.45-1-1-1zm14 1.586L27.586 41H36v17h8V41h8.414L40 28.586zM69 30c-.55 0-1 .45-1 1s.45 1 1 1 1-.45 1-1-.45-1-1-1zm-29 1.414L47.586 39H42v17h-4V39h-5.586L40 31.414zM67 33c-.55 0-1 .45-1 1s.45 1 1 1 1-.45 1-1-.45-1-1-1z"/>
</svg>
