<svg xmlns="http://www.w3.org/2000/svg" width="60" height="64" viewBox="0 0 60 64">
    <defs>
        <linearGradient id="a" x1="0%" y1="0%" y2="100%">
            <stop offset="0%" stop-color="#FBEF2B"/>
            <stop offset="33.052%" stop-color="#9FC710"/>
            <stop offset="59.709%" stop-color="#3998C1"/>
            <stop offset="100%" stop-color="#984186"/>
        </linearGradient>
    </defs>
    <path fill="url(#a)" fill-rule="nonzero" d="M5 0C3.348 0 2 1.348 2 3v26c0 1.652 1.348 3 3 3h50c1.652 0 3-1.348 3-3V3c0-1.652-1.348-3-3-3H5zm0 2h50c.55 0 1 .45 1 1v26c0 .55-.45 1-1 1H5c-.55 0-1-.45-1-1V3c0-.55.45-1 1-1zm12 2c-.55 0-1 .45-1 1v2c0 .55.45 1 1 1s1-.45 1-1V5c0-.55-.45-1-1-1zm5 0c-.55 0-1 .45-1 1v2c0 .55.45 1 1 1s1-.45 1-1V5c0-.55-.45-1-1-1zm5 0c-.55 0-1 .45-1 1v2c0 .02.008.031.012.05C23.047 8.689 21 12.079 21 16c0 3.922 2.047 7.313 5.012 8.95-.004.019-.012.03-.012.05v2c0 .55.45 1 1 1s1-.45 1-1v-1.258A8.09 8.09 0 0 0 30 26a8.09 8.09 0 0 0 2-.258V27c0 .55.45 1 1 1s1-.45 1-1v-2c0-.02-.008-.031-.012-.05C36.953 23.312 39 19.921 39 16c0-3.922-2.047-7.313-5.012-8.95.004-.019.012-.03.012-.05V5c0-.55-.45-1-1-1s-1 .45-1 1v1.258A8.09 8.09 0 0 0 30 6a8.09 8.09 0 0 0-2 .258V5c0-.55-.45-1-1-1zm11 0c-.55 0-1 .45-1 1v2c0 .55.45 1 1 1s1-.45 1-1V5c0-.55-.45-1-1-1zm5 0c-.55 0-1 .45-1 1v2c0 .55.45 1 1 1s1-.45 1-1V5c0-.55-.45-1-1-1zM7 5c-.55 0-1 .45-1 1s.45 1 1 1h5c.55 0 1-.45 1-1s-.45-1-1-1H7zm41 0c-.55 0-1 .45-1 1s.45 1 1 1h5c.55 0 1-.45 1-1s-.45-1-1-1h-5zM30 8c3.86 0 7 3.59 7 8s-3.14 8-7 8-7-3.59-7-8 3.14-8 7-8zm-18 5c-2.207 0-4 1.793-4 4s1.793 4 4 4 4-1.793 4-4-1.793-4-4-4zm36 0c-2.207 0-4 1.793-4 4s1.793 4 4 4 4-1.793 4-4-1.793-4-4-4zm-36 2c1.102 0 2 .898 2 2 0 1.102-.898 2-2 2-1.102 0-2-.898-2-2 0-1.102.898-2 2-2zm36 0c1.102 0 2 .898 2 2 0 1.102-.898 2-2 2-1.102 0-2-.898-2-2 0-1.102.898-2 2-2zm-31 9c-.55 0-1 .45-1 1v2c0 .55.45 1 1 1s1-.45 1-1v-2c0-.55-.45-1-1-1zm5 0c-.55 0-1 .45-1 1v2c0 .55.45 1 1 1s1-.45 1-1v-2c0-.55-.45-1-1-1zm16 0c-.55 0-1 .45-1 1v2c0 .55.45 1 1 1s1-.45 1-1v-2c0-.55-.45-1-1-1zm5 0c-.55 0-1 .45-1 1v2c0 .55.45 1 1 1s1-.45 1-1v-2c0-.55-.45-1-1-1zM7 25c-.55 0-1 .45-1 1s.45 1 1 1h5c.55 0 1-.45 1-1s-.45-1-1-1H7zm41 0c-.55 0-1 .45-1 1s.45 1 1 1h5c.55 0 1-.45 1-1s-.45-1-1-1h-5zM16.297 37.348a12.86 12.86 0 0 0-1.817.09l-11.832 1.39A3 3 0 0 0 0 41.808v12.66c0 .93.422 1.79 1.156 2.36.73.574 1.668.774 2.57.547l6.563-1.637a7.011 7.011 0 0 1 4.961.598l12.586 6.629A8.984 8.984 0 0 0 32.03 64c1.422 0 2.84-.336 4.14-1.012l21.302-11.047A4.661 4.661 0 0 0 60 47.781a4.655 4.655 0 0 0-1.816-3.699 4.642 4.642 0 0 0-4.04-.828l-13.41 3.476a5.024 5.024 0 0 0-1.328-2.066 5.026 5.026 0 0 0-3.765-1.324l-2.192.156a5.022 5.022 0 0 1-2.492-.465l-9.41-4.441a13.066 13.066 0 0 0-5.25-1.242zm-.047 2c1.531.039 3.047.39 4.441 1.05l9.414 4.442a7.012 7.012 0 0 0 3.489.648l2.191-.156a3.013 3.013 0 0 1 2.262.797c.613.574.953 1.351.953 2.195v.41c0 .391-.23.75-.59.91l-2.953 1.325a9.039 9.039 0 0 1-7.031.148l-5.043-2.02a.996.996 0 0 0-1.301.56.993.993 0 0 0 .559 1.296l5.043 2.02a11.056 11.056 0 0 0 8.597-.176l2.95-1.328A3.007 3.007 0 0 0 41 48.734l13.645-3.547a2.678 2.678 0 0 1 2.312.473A2.662 2.662 0 0 1 58 47.79a2.682 2.682 0 0 1-1.445 2.382L35.25 61.215a6.994 6.994 0 0 1-6.484-.024L16.18 54.562a8.978 8.978 0 0 0-6.371-.766l-6.567 1.642a.99.99 0 0 1-.855-.184.988.988 0 0 1-.387-.785v-12.66c0-.508.379-.938.883-.996l11.832-1.391a11.884 11.884 0 0 1 1.535-.074zM5 42.028c-.55 0-1 .449-1 1 0 .55.45 1 1 1h2c.55 0 1-.45 1-1 0-.551-.45-1-1-1H5zm0 5c-.55 0-1 .449-1 1 0 .55.45 1 1 1h2c.55 0 1-.45 1-1 0-.551-.45-1-1-1H5zm0 5c-.55 0-1 .449-1 1 0 .55.45 1 1 1h2c.55 0 1-.45 1-1 0-.551-.45-1-1-1H5z"/>
</svg>
