<svg xmlns="http://www.w3.org/2000/svg" width="70" height="45" viewBox="0 0 70 45">
    <defs>
        <linearGradient id="a" x1="0%" y1="0%" y2="100%">
            <stop offset="0%" stop-color="#FBEF2B"/>
            <stop offset="33.052%" stop-color="#9FC710"/>
            <stop offset="59.709%" stop-color="#3998C1"/>
            <stop offset="100%" stop-color="#984186"/>
        </linearGradient>
    </defs>
    <path fill="url(#a)" fill-rule="nonzero" d="M13.984.984C13.434.996 12.992 1.45 13 2H5a1.006 1.006 0 0 0-.879.496 1.01 1.01 0 0 0 0 1.008c.184.312.52.5.879.496h8v5h-.844A3.173 3.173 0 0 0 9 12.156a3.178 3.178 0 0 0 2.66 3.125l12.883 2.059.61 3.66H18c-3.305 0-6 2.7-6 6v19h2V27c0-2.219 1.777-4 4-4h7.484l.25 1.496A3.012 3.012 0 0 0 28.691 27H41.31a3.012 3.012 0 0 0 2.957-2.504l.25-1.496H52c2.219 0 4 1.781 4 4v19h2V27c0-3.3-2.7-6-6-6h-7.152l.609-3.66 12.887-2.059A3.175 3.175 0 0 0 61 12.156 3.173 3.173 0 0 0 57.844 9H57V4h8c.36.004.695-.184.879-.496a1.01 1.01 0 0 0 0-1.008c-.184-.312-.52-.5-.879-.496h-8A1.003 1.003 0 0 0 55.984.984C55.434.996 54.992 1.45 55 2h-8a1.006 1.006 0 0 0-.879.496 1.01 1.01 0 0 0 0 1.008c.184.312.52.5.879.496h8v5H15V4h8c.36.004.695-.184.879-.496a1.01 1.01 0 0 0 0-1.008c-.184-.312-.52-.5-.879-.496h-8A1.003 1.003 0 0 0 13.984.984zM1 2c-.55 0-1 .45-1 1s.45 1 1 1 1-.45 1-1-.45-1-1-1zm26 0c-.55 0-1 .45-1 1s.45 1 1 1 1-.45 1-1-.45-1-1-1zm16 0c-.55 0-1 .45-1 1s.45 1 1 1 1-.45 1-1-.45-1-1-1zm26 0c-.55 0-1 .45-1 1s.45 1 1 1 1-.45 1-1-.45-1-1-1zm-56.844 9h1.676c.11.02.219.02.324 0h41.676c.11.02.219.02.324 0h1.688c.648 0 1.156.508 1.156 1.156 0 .578-.406 1.055-.973 1.145l-14.304 2.293-1.43 8.57a.991.991 0 0 1-.984.836H28.69a.991.991 0 0 1-.984-.836l-1.426-8.57L11.977 13.3A1.146 1.146 0 0 1 11 12.156c0-.648.504-1.156 1.156-1.156zM29 16c-.55 0-1 .45-1 1s.45 1 1 1 1-.45 1-1-.45-1-1-1zm4 0c-.55 0-1 .45-1 1s.45 1 1 1 1-.45 1-1-.45-1-1-1zm4 0c-.55 0-1 .45-1 1s.45 1 1 1 1-.45 1-1-.45-1-1-1zm4 0c-.55 0-1 .45-1 1s.45 1 1 1 1-.45 1-1-.45-1-1-1z" transform="translate(0 -1)"/>
</svg>
