<svg xmlns="http://www.w3.org/2000/svg" width="58" height="58" viewBox="0 0 58 58">
    <defs>
        <linearGradient id="a" x1="0%" y1="0%" y2="100%">
            <stop offset="0%" stop-color="#FBEF2B"/>
            <stop offset="33.052%" stop-color="#9FC710"/>
            <stop offset="59.709%" stop-color="#3998C1"/>
            <stop offset="100%" stop-color="#984186"/>
        </linearGradient>
    </defs>
    <path fill="url(#a)" fill-rule="nonzero" d="M29 0C13.012 0 0 13.008 0 29s13.012 29 29 29 29-13.008 29-29S44.988 0 29 0zm0 2c14.887 0 27 12.113 27 27S43.887 56 29 56 2 43.887 2 29 14.113 2 29 2zm-.438 4.008a23.09 23.09 0 0 0-15.828 6.726c-8.964 8.97-8.964 23.559 0 32.528a1 1 0 0 0 1.418 0 1 1 0 0 0 0-1.414c-8.191-8.188-8.187-21.508 0-29.696C18.898 9.402 25.7 7.203 32.34 8.266a1 1 0 1 0 .316-1.977 22.574 22.574 0 0 0-4.093-.281zm8.094 1.379a.997.997 0 0 0-.89.648.999.999 0 0 0 .586 1.29c.714.265 1.418.573 2.101.913a.95.95 0 0 0 .445.11 1 1 0 0 0 .453-1.895c-.742-.375-1.519-.71-2.3-1.004a1.057 1.057 0 0 0-.395-.062zm5.778 3.289a.998.998 0 0 0-.496 1.777 20.685 20.685 0 0 1 1.91 1.7c8.191 8.187 8.191 21.507 0 29.695a1.004 1.004 0 0 0 0 1.418c.195.191.453.293.71.293.255 0 .512-.102.708-.293 8.964-8.97 8.964-23.563 0-32.532a24.17 24.17 0 0 0-2.094-1.855 1.013 1.013 0 0 0-.738-.203zM29 24c-2.758 0-5 2.242-5 5s2.242 5 5 5 5-2.242 5-5-2.242-5-5-5zm0 2c1.652 0 3 1.348 3 3s-1.348 3-3 3-3-1.348-3-3 1.348-3 3-3zm-9.625 19.395a.992.992 0 0 0-.988.492l-1 1.734a.997.997 0 0 0 .363 1.363.995.995 0 0 0 1.363-.363l1-1.734a.998.998 0 0 0-.738-1.492zm19.25 0a1.002 1.002 0 0 0-.738 1.496l1 1.73a.995.995 0 0 0 1.363.363.993.993 0 0 0 .363-1.363l-1-1.73a1.002 1.002 0 0 0-.988-.496zm-4.438 1.949a.946.946 0 0 0-.402.027c-.531.14-.847.691-.707 1.223l.52 1.933a1.004 1.004 0 0 0 1.226.707 1 1 0 0 0 .707-1.222l-.515-1.934a1.007 1.007 0 0 0-.828-.734zm-10.37 0a1.007 1.007 0 0 0-.833.734l-.515 1.934a1 1 0 0 0 1.933.515l.52-1.933a1.001 1.001 0 0 0-1.106-1.25zM29 48a1 1 0 0 0-1 1v2a1 1 0 1 0 2 0v-2a1 1 0 0 0-1-1z"/>
</svg>
