<svg xmlns="http://www.w3.org/2000/svg" width="52" height="61" viewBox="0 0 52 61">
    <defs>
        <linearGradient id="a" x1="0%" y1="0%" y2="100%">
            <stop offset="0%" stop-color="#FBEF2B"/>
            <stop offset="33.052%" stop-color="#9FC710"/>
            <stop offset="59.709%" stop-color="#3998C1"/>
            <stop offset="100%" stop-color="#984186"/>
        </linearGradient>
    </defs>
    <path fill="url(#a)" fill-rule="nonzero" d="M25.77 0c-.66 0-1.32.223-1.874.664l-2.243 1.797A28.99 28.99 0 0 1 7.38 8.555l-4.781.64a3.011 3.011 0 0 0-2.594 3.149L.982 28.98a31.021 31.021 0 0 0 11.84 22.602l9.867 7.723a5 5 0 0 0 6.16 0l9.87-7.723A31.021 31.021 0 0 0 50.56 28.98l.977-16.632a3.016 3.016 0 0 0-2.597-3.153l-4.778-.64A28.99 28.99 0 0 1 29.888 2.46L27.646.664A3.021 3.021 0 0 0 25.77 0zm0 2.008a1 1 0 0 1 .626.219l2.238 1.793a30.991 30.991 0 0 0 15.262 6.52l4.777.64a.997.997 0 0 1 .863 1.047l-.969 16.64a29.028 29.028 0 0 1-11.078 21.14l-9.87 7.72a2.987 2.987 0 0 1-3.696 0l-9.871-7.72a29.035 29.035 0 0 1-11.078-21.14L2 12.227a1 1 0 0 1 .863-1.047l4.778-.64c5.586-.743 10.86-3 15.258-6.52l2.246-1.793a.984.984 0 0 1 .625-.22zm0 3.703c-.43 0-.867.14-1.23.422L23.1 7.258a28.958 28.958 0 0 1-15.18 5.988l-1.152.106a1.992 1.992 0 0 0-1.817 2.101l.79 14.309a23.048 23.048 0 0 0 8.476 16.605L23.88 54.2a2.99 2.99 0 0 0 1.89.668 2.99 2.99 0 0 0 1.891-.668l9.664-7.832a23.055 23.055 0 0 0 8.477-16.605l.789-14.309a1.987 1.987 0 0 0-1.816-2.101l-1.153-.11a28.925 28.925 0 0 1-15.18-5.988l-1.44-1.121a2.006 2.006 0 0 0-1.231-.422zm0 2l1.442 1.125a30.972 30.972 0 0 0 16.23 6.402l1.153.102-.79 14.312a20.989 20.989 0 0 1-2.558 8.934.957.957 0 0 0-.476-.14 1 1 0 0 0-1 1v1c0 .132.027.253.074.37a20.994 20.994 0 0 1-3.778 3.993l-9.667 7.84a1.01 1.01 0 0 1-1.258 0l-9.668-7.84a21.139 21.139 0 0 1-3.782-3.993.916.916 0 0 0 .079-.37v-1a1 1 0 0 0-1-1 .957.957 0 0 0-.477.14 20.989 20.989 0 0 1-2.559-8.934L6.946 15.34l1.153-.102a30.972 30.972 0 0 0 16.23-6.402l1.442-1.125zm0 4.156c-.402 0-.804.117-1.144.36l-2.574 1.796a28.781 28.781 0 0 1-8.559 4.098c-.527.156-.832.711-.68 1.242a1 1 0 0 0 .962.723.977.977 0 0 0 .277-.043 30.854 30.854 0 0 0 9.144-4.379l2.575-1.797 2.566 1.797a31.038 31.038 0 0 0 3.621 2.184.998.998 0 0 0 1.348-.434.997.997 0 0 0-.43-1.344 28.729 28.729 0 0 1-3.39-2.047l-2.57-1.796a2.014 2.014 0 0 0-1.145-.36zm10.133 5.63a.999.999 0 0 0-.886.663.997.997 0 0 0 .601 1.277c.598.215 1.196.41 1.801.586.094.028.188.043.281.043.434 0 .832-.285.961-.722a1.006 1.006 0 0 0-.683-1.242 29.021 29.021 0 0 1-1.68-.547 1.065 1.065 0 0 0-.395-.059zM15.771 38.444a1 1 0 0 0-1 1v2a1 1 0 1 0 2 0v-2a1 1 0 0 0-1-1zm5 0a1 1 0 0 0-1 1v2a1 1 0 1 0 2 0v-2a1 1 0 0 0-1-1zm5 0a1 1 0 0 0-1 1v2a1 1 0 1 0 2 0v-2a1 1 0 0 0-1-1zm5 0a1 1 0 0 0-1 1v2a1 1 0 1 0 2 0v-2a1 1 0 0 0-1-1zm5 0a1 1 0 0 0-1 1v2a1 1 0 1 0 2 0v-2a1 1 0 0 0-1-1z"/>
</svg>
