<svg xmlns="http://www.w3.org/2000/svg" width="150" height="48" viewBox="0 0 150 48">
    <defs>
        <linearGradient id="a" x1="0%" y1="0%" y2="100%">
            <stop offset="0%" stop-color="#FBEF2B"/>
            <stop offset="33.052%" stop-color="#9FC710"/>
            <stop offset="59.709%" stop-color="#3998C1"/>
            <stop offset="100%" stop-color="#984186"/>
        </linearGradient>
    </defs>
    <g fill="none" fill-rule="evenodd">
        <path fill="url(#a)" fill-rule="nonzero" stroke="url(#a)" d="M41.313 1.312c0-.725.601-1.312 1.343-1.312S44 .587 44 1.312V29.33c0 .724-.602 1.311-1.344 1.311H8.086c-.544 0-1.034-.32-1.242-.809a1.288 1.288 0 0 1 .291-1.43L33.55 2.623H3.688v27.065c0 .725-.602 1.312-1.344 1.312C1.6 31 1 30.413 1 29.688V1.312C1 .587 1.602 0 2.344 0h34.449c.543 0 1.033.32 1.241.81.208.49.093 1.054-.291 1.429l-26.414 25.78h29.983V1.312z" transform="translate(0 1)"/>
        <path fill="#000" d="M62.452 29.53c0 .924.756 1.68 1.638 1.68.924 0 1.68-.756 1.68-1.68V3.07c0-.924-.756-1.68-1.68-1.68-.882 0-1.638.756-1.638 1.68v26.46zm11.928 0V3.28c0-.924.756-1.68 1.638-1.68h11.004c3.612 0 6.51 1.092 8.358 2.94 1.428 1.428 2.268 3.486 2.268 5.796v.084c0 4.83-3.276 7.644-7.854 8.526l7.308 9.408c.336.378.546.756.546 1.218 0 .882-.84 1.638-1.68 1.638-.672 0-1.176-.378-1.554-.882L86.14 19.576h-8.442v9.954c0 .924-.756 1.68-1.68 1.68-.882 0-1.638-.756-1.638-1.68zm3.318-12.936h9.03c4.41 0 7.56-2.268 7.56-6.048v-.084c0-3.612-2.772-5.796-7.518-5.796h-9.072v11.928zM105.04 29.53c0 .924.756 1.68 1.638 1.68.924 0 1.68-.756 1.68-1.68V3.07c0-.924-.756-1.68-1.68-1.68-.882 0-1.638.756-1.638 1.68v26.46zM117.178 31h20.664c.84 0 1.512-.672 1.512-1.512 0-.798-.672-1.47-1.512-1.47h-17.724l18.438-23.436c.378-.462.588-.882.588-1.47v-.084c0-.756-.714-1.428-1.512-1.428h-20.034c-.84 0-1.512.672-1.512 1.512 0 .798.672 1.47 1.512 1.47h17.052l-18.438 23.436c-.378.462-.588.882-.588 1.47v.084c0 .756.714 1.428 1.554 1.428zm29.19-1.47c0 .924.756 1.68 1.638 1.68.924 0 1.68-.756 1.68-1.68V3.07c0-.924-.756-1.68-1.68-1.68-.882 0-1.638.756-1.638 1.68v26.46z"/>
        <path fill="#939090" fill-opacity=".87" d="M.869 39.21h3.038c.509 0 .999.078 1.47.234.472.156.89.394 1.253.713.363.32.653.721.871 1.204.218.483.327 1.05.327 1.704 0 .66-.125 1.233-.376 1.715-.25.483-.573.882-.97 1.198a4.133 4.133 0 0 1-1.317.708 4.604 4.604 0 0 1-1.421.234H.869v-7.71zm2.396 6.469a4.86 4.86 0 0 0 1.214-.147c.381-.098.713-.25.997-.458.283-.206.506-.475.67-.805.163-.33.244-.732.244-1.204 0-.464-.072-.864-.217-1.198a2.083 2.083 0 0 0-.605-.811 2.522 2.522 0 0 0-.915-.457 4.316 4.316 0 0 0-1.16-.147H2.242v5.227h1.024zm5.77-6.469h2.68c.37 0 .728.035 1.072.103.345.07.652.187.92.354.27.167.483.392.643.676.16.283.24.642.24 1.078 0 .559-.155 1.027-.463 1.405-.309.377-.75.606-1.323.686l2.047 3.408h-1.655l-1.786-3.267h-1.002v3.267H9.036v-7.71zm2.44 3.267c.196 0 .392-.009.588-.027.196-.018.376-.062.54-.13a.92.92 0 0 0 .397-.317c.101-.141.152-.339.152-.593 0-.225-.047-.407-.141-.545a.88.88 0 0 0-.37-.31 1.704 1.704 0 0 0-.507-.136 4.614 4.614 0 0 0-.54-.033h-1.186v2.091h1.067zm3.909.62c0-.616.101-1.177.305-1.682.203-.504.484-.934.844-1.29a3.7 3.7 0 0 1 1.285-.822 4.506 4.506 0 0 1 1.639-.289 4.58 4.58 0 0 1 1.655.267c.5.185.933.455 1.296.811.363.356.646.784.85 1.285.203.501.304 1.06.304 1.677a4.28 4.28 0 0 1-.305 1.645 3.771 3.771 0 0 1-.85 1.274 3.88 3.88 0 0 1-1.295.833c-.501.2-1.053.303-1.655.31a4.506 4.506 0 0 1-1.64-.288 3.74 3.74 0 0 1-1.284-.817 3.753 3.753 0 0 1-.844-1.269 4.28 4.28 0 0 1-.305-1.644zm1.437-.086c0 .414.064.795.19 1.143.128.349.308.65.54.904.232.254.51.454.833.599.323.145.684.218 1.084.218.399 0 .762-.073 1.089-.218.326-.145.606-.345.838-.599.232-.254.412-.555.54-.904.126-.348.19-.73.19-1.143 0-.385-.064-.744-.19-1.078a2.671 2.671 0 0 0-.54-.877 2.466 2.466 0 0 0-.838-.588 2.711 2.711 0 0 0-1.09-.213c-.399 0-.76.071-1.083.213a2.48 2.48 0 0 0-.833.588c-.232.25-.412.543-.54.877-.126.334-.19.693-.19 1.078zm7.95-3.801h1.818l3.735 5.728h.022V39.21h1.372v7.71h-1.742l-3.812-5.913h-.022v5.913H24.77v-7.71zm8.569 0h5.107v1.242h-3.735v1.894h3.54v1.242h-3.54v2.09h3.931v1.242H33.34v-7.71zm9.68 0h3.038c.508 0 .998.078 1.47.234.472.156.89.394 1.252.713.363.32.654.721.871 1.204.218.483.327 1.05.327 1.704 0 .66-.125 1.233-.376 1.715-.25.483-.573.882-.969 1.198a4.133 4.133 0 0 1-1.318.708 4.604 4.604 0 0 1-1.42.234h-2.876v-7.71zm2.395 6.469a4.86 4.86 0 0 0 1.214-.147c.381-.098.714-.25.997-.458.283-.206.506-.475.67-.805.163-.33.245-.732.245-1.204 0-.464-.073-.864-.218-1.198a2.083 2.083 0 0 0-.605-.811 2.522 2.522 0 0 0-.914-.457 4.316 4.316 0 0 0-1.16-.147H44.39v5.227h1.024zm5.738-6.469h1.372v7.71h-1.372v-7.71zm9.811 7.144c-.95.508-2.014.762-3.19.762a4.506 4.506 0 0 1-1.64-.288 3.74 3.74 0 0 1-1.285-.817 3.753 3.753 0 0 1-.844-1.269 4.28 4.28 0 0 1-.304-1.644c0-.617.101-1.178.304-1.683.204-.504.485-.934.844-1.29a3.7 3.7 0 0 1 1.286-.822 4.506 4.506 0 0 1 1.638-.289c.589 0 1.14.07 1.656.212.515.142.976.394 1.383.757l-1.013 1.024a2.54 2.54 0 0 0-.898-.555 3.182 3.182 0 0 0-1.117-.197c-.399 0-.76.071-1.083.213a2.48 2.48 0 0 0-.833.588c-.233.25-.412.543-.54.877-.126.334-.19.693-.19 1.078 0 .414.064.795.19 1.143.128.349.307.65.54.904.232.254.51.454.833.599.323.145.684.218 1.083.218.349 0 .677-.033.986-.098.309-.066.583-.167.822-.305v-1.819h-1.579v-1.241h2.951v3.942zm1.491-7.144h1.372v7.71h-1.372v-7.71zm4.54 1.242h-2.363V39.21h6.099v1.242h-2.363v6.468h-1.372v-6.468zm6.065-1.242h1.187l3.322 7.71h-1.568l-.719-1.764h-3.343l-.697 1.764h-1.536l3.354-7.71zm1.743 4.77l-1.187-3.136-1.209 3.136h2.396zm3.527-4.77h1.372v6.469h3.278v1.241h-4.65v-7.71zm8.678 0h5.107v1.242H88.38v1.894h3.54v1.242h-3.54v2.09h3.931v1.242h-5.303v-7.71zm11.847 1.808c-.283-.305-.557-.508-.822-.61a2.22 2.22 0 0 0-.8-.153c-.4 0-.76.071-1.084.213a2.48 2.48 0 0 0-.833.588c-.232.25-.412.543-.539.877-.127.334-.19.693-.19 1.078 0 .414.063.795.19 1.143.127.349.307.65.54.904.231.254.51.454.832.599.323.145.684.218 1.084.218.312 0 .615-.075.91-.223.293-.15.567-.387.821-.714l1.133.806c-.349.48-.773.828-1.274 1.046a3.971 3.971 0 0 1-1.601.326 4.506 4.506 0 0 1-1.64-.288 3.74 3.74 0 0 1-1.284-.817 3.753 3.753 0 0 1-.844-1.269 4.28 4.28 0 0 1-.305-1.644c0-.617.102-1.178.305-1.683.203-.504.485-.934.844-1.29a3.7 3.7 0 0 1 1.285-.822 4.506 4.506 0 0 1 1.639-.289c.523 0 1.007.093 1.454.278.446.185.862.499 1.247.942l-1.068.784zm1.655 2.08c0-.617.101-1.178.305-1.683.203-.504.484-.934.844-1.29a3.7 3.7 0 0 1 1.285-.822 4.506 4.506 0 0 1 1.639-.289 4.58 4.58 0 0 1 1.655.267c.501.185.933.455 1.296.811.363.356.646.784.85 1.285.203.501.304 1.06.304 1.677a4.28 4.28 0 0 1-.305 1.645 3.771 3.771 0 0 1-.849 1.274 3.88 3.88 0 0 1-1.296.833c-.5.2-1.053.303-1.655.31a4.506 4.506 0 0 1-1.64-.288 3.74 3.74 0 0 1-1.284-.817 3.753 3.753 0 0 1-.844-1.269 4.28 4.28 0 0 1-.305-1.644zm1.437-.087c0 .414.064.795.19 1.143.128.349.308.65.54.904.232.254.51.454.833.599.323.145.684.218 1.084.218.399 0 .762-.073 1.089-.218.326-.145.606-.345.838-.599.233-.254.412-.555.54-.904.126-.348.19-.73.19-1.143 0-.385-.064-.744-.19-1.078a2.671 2.671 0 0 0-.54-.877 2.466 2.466 0 0 0-.838-.588 2.711 2.711 0 0 0-1.09-.213c-.399 0-.76.071-1.083.213a2.48 2.48 0 0 0-.833.588c-.232.25-.412.543-.54.877-.126.334-.19.693-.19 1.078zm11.728-2.146a1.266 1.266 0 0 0-.583-.462 2.035 2.035 0 0 0-1.23-.093 1.256 1.256 0 0 0-.403.174.91.91 0 0 0-.289.31.896.896 0 0 0-.109.452c0 .262.091.462.273.6.181.137.406.257.675.359.269.101.563.2.882.294.32.094.613.225.882.392s.494.388.675.664c.182.276.273.643.273 1.1 0 .414-.077.775-.23 1.084a2.208 2.208 0 0 1-.614.767 2.66 2.66 0 0 1-.899.458 4.046 4.046 0 0 1-2.461-.087 2.665 2.665 0 0 1-1.144-.806l1.035-1.002c.167.254.387.452.659.593a1.85 1.85 0 0 0 1.345.148c.16-.044.305-.11.435-.197.131-.087.236-.197.316-.332a.888.888 0 0 0 .12-.463c0-.283-.09-.5-.272-.653a2.405 2.405 0 0 0-.675-.387 10.845 10.845 0 0 0-.883-.299 3.715 3.715 0 0 1-.882-.387 2.145 2.145 0 0 1-.675-.653c-.181-.272-.272-.637-.272-1.094 0-.4.082-.745.245-1.035.163-.29.377-.532.642-.724.265-.193.569-.336.91-.43a3.904 3.904 0 0 1 2.227.043c.381.124.724.327 1.029.61l-1.002 1.056zm4.257 2.756l-2.897-4.411h1.721l1.895 3.071 1.917-3.071h1.633l-2.897 4.41v3.3h-1.372v-3.3zm8.657-2.756a1.266 1.266 0 0 0-.583-.462 2.035 2.035 0 0 0-1.23-.093 1.256 1.256 0 0 0-.403.174.91.91 0 0 0-.289.31.896.896 0 0 0-.109.452c0 .262.091.462.273.6.181.137.406.257.675.359.268.101.562.2.882.294.32.094.613.225.882.392s.494.388.675.664c.182.276.272.643.272 1.1 0 .414-.076.775-.228 1.084a2.208 2.208 0 0 1-.616.767 2.66 2.66 0 0 1-.898.458 4.046 4.046 0 0 1-2.461-.087 2.665 2.665 0 0 1-1.144-.806l1.035-1.002c.167.254.386.452.659.593a1.85 1.85 0 0 0 1.345.148c.16-.044.305-.11.435-.197.131-.087.236-.197.316-.332a.888.888 0 0 0 .12-.463c0-.283-.09-.5-.272-.653a2.405 2.405 0 0 0-.676-.387 10.845 10.845 0 0 0-.882-.299 3.715 3.715 0 0 1-.882-.387 2.145 2.145 0 0 1-.675-.653c-.181-.272-.272-.637-.272-1.094 0-.4.081-.745.245-1.035.163-.29.377-.532.642-.724.265-.193.568-.336.91-.43a3.904 3.904 0 0 1 2.227.043c.38.124.724.327 1.029.61l-1.002 1.056zm3.952-.413h-2.363V39.21h6.098v1.242h-2.363v6.468h-1.372v-6.468zm4.573-1.242h5.108v1.242h-3.736v1.894h3.54v1.242h-3.54v2.09h3.932v1.242h-5.304v-7.71zm6.588 0h2.09l2.059 5.402 2.08-5.402H150v7.71h-1.307v-6.403h-.022l-2.341 6.403h-.958l-2.342-6.403h-.022v6.403h-1.306v-7.71z"/>
    </g>
</svg>
