<svg xmlns="http://www.w3.org/2000/svg" width="180" height="46" viewBox="0 0 180 46">
    <g fill="#FFF" fill-rule="evenodd">
        <path fill-rule="nonzero" stroke="#FFF" d="M58.188 2.862c0-1.029.853-1.862 1.906-1.862C61.146 1 62 1.834 62 2.862V42.63c0 1.028-.854 1.861-1.906 1.861H11.05c-.77 0-1.466-.453-1.76-1.148a1.83 1.83 0 0 1 .412-2.03l37.47-36.59H4.813v38.414c0 1.029-.854 1.862-1.907 1.862S1 44.167 1 43.138V2.862C1 1.833 1.853 1 2.906 1h48.87c.77 0 1.465.453 1.76 1.149a1.83 1.83 0 0 1-.413 2.029l-37.47 36.591h42.535V2.862z"/>
        <path d="M92.452 35.53c0 .924.756 1.68 1.638 1.68.924 0 1.68-.756 1.68-1.68V9.07c0-.924-.756-1.68-1.68-1.68-.882 0-1.638.756-1.638 1.68v26.46zm11.928 0V9.28c0-.924.756-1.68 1.638-1.68h11.004c3.612 0 6.51 1.092 8.358 2.94 1.428 1.428 2.268 3.486 2.268 5.796v.084c0 4.83-3.276 7.644-7.854 8.526l7.308 9.408c.336.378.546.756.546 1.218 0 .882-.84 1.638-1.68 1.638-.672 0-1.176-.378-1.554-.882l-8.274-10.752h-8.442v9.954c0 .924-.756 1.68-1.68 1.68-.882 0-1.638-.756-1.638-1.68zm3.318-12.936h9.03c4.41 0 7.56-2.268 7.56-6.048v-.084c0-3.612-2.772-5.796-7.518-5.796h-9.072v11.928zM135.04 35.53c0 .924.756 1.68 1.638 1.68.924 0 1.68-.756 1.68-1.68V9.07c0-.924-.756-1.68-1.68-1.68-.882 0-1.638.756-1.638 1.68v26.46zM147.178 37h20.664c.84 0 1.512-.672 1.512-1.512 0-.798-.672-1.47-1.512-1.47h-17.724l18.438-23.436c.378-.462.588-.882.588-1.47v-.084c0-.756-.714-1.428-1.512-1.428h-20.034c-.84 0-1.512.672-1.512 1.512 0 .798.672 1.47 1.512 1.47h17.052l-18.438 23.436c-.378.462-.588.882-.588 1.47v.084c0 .756.714 1.428 1.554 1.428zm29.19-1.47c0 .924.756 1.68 1.638 1.68.924 0 1.68-.756 1.68-1.68V9.07c0-.924-.756-1.68-1.68-1.68-.882 0-1.638.756-1.638 1.68v26.46z"/>
    </g>
</svg>
