<svg xmlns="http://www.w3.org/2000/svg" width="24" height="24" viewBox="0 0 24 24">
    <path fill="#FFF" fill-opacity=".4" fill-rule="evenodd" d="M3.5 17c.958 0 1.781.344 2.469 1.031C6.656 18.72 7 19.541 7 20.5c0 .958-.344 1.781-1.031 2.469C5.28 23.656 4.459 24 3.5 24c-.958 0-1.781-.344-2.469-1.031C.344 22.28 0 21.459 0 20.5c0-.958.344-1.781 1.031-2.469C1.72 17.344 2.541 17 3.5 17zM0 8c4.375 0 8.135 1.573 11.281 4.719C14.427 15.865 16 19.625 16 24h-5c0-3.333-1-6-3-8s-4.667-3-8-3V8zm0-8c6.625 0 12.281 2.344 16.969 7.031C21.656 11.72 24 17.375 24 24h-5c0-5.333-1.833-9.833-5.5-13.5S5.333 5 0 5V0z"/>
</svg>
